<svg xmlns:dc="http://purl.org/dc/elements/1.1/" xmlns:cc="http://creativecommons.org/ns#" xmlns:rdf="http://www.w3.org/1999/02/22-rdf-syntax-ns#" xmlns:svg="http://www.w3.org/2000/svg" xmlns="http://www.w3.org/2000/svg" xmlns:sodipodi="http://sodipodi.sourceforge.net/DTD/sodipodi-0.dtd" xmlns:inkscape="http://www.inkscape.org/namespaces/inkscape" version="1.1" x="0px" y="0px" viewBox="0 0 100 125"><g transform="translate(0,-952.36218)"><path style="font-size:medium;font-style:normal;font-variant:normal;font-weight:normal;font-stretch:normal;text-indent:0;text-align:start;text-decoration:none;line-height:normal;letter-spacing:normal;word-spacing:normal;text-transform:none;direction:ltr;block-progression:tb;writing-mode:lr-tb;text-anchor:start;baseline-shift:baseline;opacity:1;color:#000000;fill:#000000;fill-opacity:1;stroke:none;stroke-width:3.99999737999999990;marker:none;visibility:visible;display:inline;overflow:visible;enable-background:accumulate;font-family:Sans;-inkscape-font-specification:Sans" d="M 50 6 C 25.723159 6 6 25.72315 6 50 C 6 74.2769 25.723162 94 50 94 C 74.276842 94 94 74.2769 94 50 C 94 25.72315 74.276845 6 50 6 z M 50 10 C 72.115085 10 90 27.88491 90 50 C 90 61.660112 85.03601 72.161889 77.09375 79.46875 C 72.466821 64.835697 62.035236 55 50 55 C 37.964764 55 27.533179 64.835697 22.90625 79.46875 C 14.96399 72.161889 10 61.660112 10 50 C 10 27.88491 27.884919 10 50 10 z M 50 21 C 42.2917 21 36 27.29171 36 35 C 36 42.70829 42.2917 49 50 49 C 57.708301 49 64 42.70829 64 35 C 64 27.29171 57.708301 21 50 21 z M 50 25 C 55.546539 25 60 29.45347 60 35 C 60 40.54653 55.546539 45 50 45 C 44.453462 45 40 40.54653 40 35 C 40 29.45347 44.453462 25 50 25 z M 50 59 C 60.207874 59 69.719389 67.862335 73.71875 82.21875 C 67.083773 87.109713 58.887763 90 50 90 C 41.112238 90 32.916228 87.109713 26.28125 82.21875 C 30.280611 67.862335 39.792126 59 50 59 z " transform="translate(0,952.36218)"/></g><text x="0" y="115" fill="#000000" font-size="5px" font-weight="bold" font-family="'Helvetica Neue', Helvetica, Arial-Unicode, Arial, Sans-serif">Created by joe pictos</text><text x="0" y="120" fill="#000000" font-size="5px" font-weight="bold" font-family="'Helvetica Neue', Helvetica, Arial-Unicode, Arial, Sans-serif">from the Noun Project</text></svg>